<svg width="341" height="40" viewBox="0 0 341 40" fill="none" xmlns="http://www.w3.org/2000/svg">
<path d="M12.9608 7.264C15.0728 7.264 16.7648 7.912 18.0368 9.208C19.3328 10.504 19.9808 12.208 19.9808 14.32C19.9808 16.408 19.3208 18.088 18.0008 19.36C16.7048 20.632 14.9888 21.268 12.8528 21.268H5.83281C5.73681 21.268 5.68881 21.316 5.68881 21.412V32.14C5.68881 32.38 5.56881 32.5 5.32881 32.5H3.49281C3.25281 32.5 3.13281 32.38 3.13281 32.14V7.624C3.13281 7.384 3.25281 7.264 3.49281 7.264H12.9608ZM12.6728 19.144C14.0888 19.144 15.2408 18.712 16.1288 17.848C17.0168 16.96 17.4608 15.796 17.4608 14.356C17.4608 12.892 17.0168 11.716 16.1288 10.828C15.2408 9.94 14.0888 9.496 12.6728 9.496H5.83281C5.73681 9.496 5.68881 9.544 5.68881 9.64V19C5.68881 19.096 5.73681 19.144 5.83281 19.144H12.6728Z" fill="white"/>
<path d="M29.7807 32.788C28.0527 32.788 26.5647 32.344 25.3167 31.456C24.0687 30.568 23.2047 29.344 22.7247 27.784C22.3887 26.68 22.2207 25.204 22.2207 23.356C22.2207 21.508 22.3887 20.044 22.7247 18.964C23.1807 17.428 24.0327 16.216 25.2807 15.328C26.5287 14.44 28.0407 13.996 29.8167 13.996C31.5207 13.996 32.9847 14.44 34.2087 15.328C35.4567 16.216 36.3087 17.416 36.7647 18.928C37.1007 19.96 37.2687 21.436 37.2687 23.356C37.2687 25.3 37.1007 26.776 36.7647 27.784C36.3087 29.344 35.4567 30.568 34.2087 31.456C32.9847 32.344 31.5087 32.788 29.7807 32.788ZM29.7807 30.556C30.9327 30.556 31.9167 30.244 32.7327 29.62C33.5487 28.972 34.1007 28.108 34.3887 27.028C34.6047 26.164 34.7127 24.952 34.7127 23.392C34.7127 21.808 34.6167 20.596 34.4247 19.756C34.1367 18.676 33.5727 17.824 32.7327 17.2C31.9167 16.552 30.9207 16.228 29.7447 16.228C28.5687 16.228 27.5727 16.552 26.7567 17.2C25.9407 17.824 25.3887 18.676 25.1007 19.756C24.9087 20.596 24.8127 21.808 24.8127 23.392C24.8127 24.976 24.9087 26.188 25.1007 27.028C25.3647 28.108 25.9047 28.972 26.7207 29.62C27.5607 30.244 28.5807 30.556 29.7807 30.556Z" fill="white"/>
<path d="M44.8068 32.5C44.6147 32.5 44.4827 32.404 44.4108 32.212L39.2988 14.68L39.2628 14.572C39.2628 14.38 39.3827 14.284 39.6227 14.284H41.4948C41.7108 14.284 41.8428 14.392 41.8908 14.608L45.7068 28.792C45.7308 28.84 45.7548 28.864 45.7788 28.864C45.8268 28.864 45.8628 28.84 45.8868 28.792L49.7748 14.608C49.8228 14.392 49.9548 14.284 50.1708 14.284H51.8988C52.1148 14.284 52.2467 14.38 52.2948 14.572L56.2188 28.756C56.2428 28.804 56.2788 28.828 56.3268 28.828C56.3748 28.828 56.4108 28.804 56.4348 28.756L60.3588 14.608C60.4068 14.392 60.5388 14.284 60.7548 14.284L62.6268 14.32C62.7468 14.32 62.8308 14.356 62.8788 14.428C62.9508 14.5 62.9748 14.596 62.9508 14.716L57.7668 32.212C57.6948 32.404 57.5628 32.5 57.3708 32.5H55.4628C55.2708 32.5 55.1388 32.404 55.0668 32.212L51.1428 18.748C51.1188 18.7 51.0828 18.676 51.0348 18.676C51.0108 18.676 50.9868 18.7 50.9628 18.748L47.1468 32.212C47.0748 32.404 46.9428 32.5 46.7508 32.5H44.8068Z" fill="white"/>
<path d="M79.6224 20.332C79.7184 21.004 79.7664 21.844 79.7664 22.852V24.004C79.7664 24.244 79.6464 24.364 79.4064 24.364H67.7784C67.6824 24.364 67.6344 24.412 67.6344 24.508C67.6824 25.828 67.7544 26.68 67.8504 27.064C68.1144 28.144 68.6784 28.996 69.5424 29.62C70.4064 30.244 71.5104 30.556 72.8544 30.556C73.8624 30.556 74.7504 30.328 75.5184 29.872C76.2864 29.416 76.8864 28.768 77.3184 27.928C77.4624 27.712 77.6304 27.664 77.8224 27.784L79.2264 28.612C79.4184 28.732 79.4664 28.9 79.3704 29.116C78.7704 30.268 77.8704 31.18 76.6704 31.852C75.4704 32.5 74.0904 32.824 72.5304 32.824C70.8264 32.8 69.3984 32.392 68.2464 31.6C67.0944 30.808 66.2664 29.704 65.7624 28.288C65.3304 27.136 65.1144 25.48 65.1144 23.32C65.1144 22.312 65.1264 21.496 65.1504 20.872C65.1984 20.224 65.2944 19.648 65.4384 19.144C65.8464 17.584 66.6624 16.336 67.8864 15.4C69.1344 14.464 70.6344 13.996 72.3864 13.996C74.5704 13.996 76.2504 14.548 77.4264 15.652C78.6024 16.756 79.3344 18.316 79.6224 20.332ZM72.3864 16.228C71.2104 16.228 70.2264 16.54 69.4344 17.164C68.6664 17.764 68.1624 18.58 67.9224 19.612C67.7784 20.116 67.6824 20.932 67.6344 22.06C67.6344 22.156 67.6824 22.204 67.7784 22.204H77.1024C77.1984 22.204 77.2464 22.156 77.2464 22.06C77.1984 20.98 77.1264 20.212 77.0304 19.756C76.7664 18.676 76.2264 17.824 75.4104 17.2C74.6184 16.552 73.6104 16.228 72.3864 16.228Z" fill="white"/>
<path d="M91.4737 14.104C92.2657 14.104 92.9497 14.26 93.5257 14.572C93.7177 14.668 93.7897 14.824 93.7417 15.04L93.3457 16.804C93.2737 17.044 93.1177 17.116 92.8777 17.02C92.4697 16.852 92.0017 16.768 91.4737 16.768L91.0057 16.804C89.7577 16.852 88.7257 17.32 87.9097 18.208C87.0937 19.072 86.6857 20.176 86.6857 21.52V32.14C86.6857 32.38 86.5657 32.5 86.3257 32.5H84.4897C84.2497 32.5 84.1297 32.38 84.1297 32.14V14.644C84.1297 14.404 84.2497 14.284 84.4897 14.284H86.3257C86.5657 14.284 86.6857 14.404 86.6857 14.644V16.84C86.6857 16.912 86.6977 16.96 86.7217 16.984C86.7697 16.984 86.8057 16.96 86.8297 16.912C87.3337 16.024 87.9697 15.34 88.7377 14.86C89.5297 14.356 90.4417 14.104 91.4737 14.104Z" fill="white"/>
<path d="M110.315 20.332C110.411 21.004 110.459 21.844 110.459 22.852V24.004C110.459 24.244 110.339 24.364 110.099 24.364H98.4712C98.3752 24.364 98.3272 24.412 98.3272 24.508C98.3752 25.828 98.4472 26.68 98.5432 27.064C98.8072 28.144 99.3712 28.996 100.235 29.62C101.099 30.244 102.203 30.556 103.547 30.556C104.555 30.556 105.443 30.328 106.211 29.872C106.979 29.416 107.579 28.768 108.011 27.928C108.155 27.712 108.323 27.664 108.515 27.784L109.919 28.612C110.111 28.732 110.159 28.9 110.063 29.116C109.463 30.268 108.563 31.18 107.363 31.852C106.163 32.5 104.783 32.824 103.223 32.824C101.519 32.8 100.091 32.392 98.9392 31.6C97.7872 30.808 96.9592 29.704 96.4552 28.288C96.0232 27.136 95.8072 25.48 95.8072 23.32C95.8072 22.312 95.8192 21.496 95.8432 20.872C95.8912 20.224 95.9872 19.648 96.1312 19.144C96.5392 17.584 97.3552 16.336 98.5792 15.4C99.8272 14.464 101.327 13.996 103.079 13.996C105.263 13.996 106.943 14.548 108.119 15.652C109.295 16.756 110.027 18.316 110.315 20.332ZM103.079 16.228C101.903 16.228 100.919 16.54 100.127 17.164C99.3592 17.764 98.8552 18.58 98.6152 19.612C98.4712 20.116 98.3752 20.932 98.3272 22.06C98.3272 22.156 98.3752 22.204 98.4712 22.204H107.795C107.891 22.204 107.939 22.156 107.939 22.06C107.891 20.98 107.819 20.212 107.723 19.756C107.459 18.676 106.919 17.824 106.103 17.2C105.311 16.552 104.303 16.228 103.079 16.228Z" fill="white"/>
<path d="M126.127 7.66C126.127 7.42 126.247 7.3 126.487 7.3H128.323C128.563 7.3 128.683 7.42 128.683 7.66V32.14C128.683 32.38 128.563 32.5 128.323 32.5H126.487C126.247 32.5 126.127 32.38 126.127 32.14V30.628C126.127 30.58 126.103 30.556 126.055 30.556C126.031 30.532 125.995 30.544 125.947 30.592C125.419 31.288 124.759 31.828 123.967 32.212C123.199 32.596 122.335 32.788 121.375 32.788C119.695 32.788 118.279 32.356 117.127 31.492C115.999 30.628 115.219 29.452 114.787 27.964C114.451 26.884 114.283 25.36 114.283 23.392C114.283 21.4 114.427 19.912 114.715 18.928C115.147 17.392 115.939 16.192 117.091 15.328C118.243 14.44 119.671 13.996 121.375 13.996C122.311 13.996 123.175 14.188 123.967 14.572C124.759 14.932 125.419 15.46 125.947 16.156C125.995 16.204 126.031 16.228 126.055 16.228C126.103 16.204 126.127 16.168 126.127 16.12V7.66ZM125.479 27.784C125.695 27.304 125.851 26.74 125.947 26.092C126.043 25.444 126.091 24.544 126.091 23.392C126.091 22.24 126.043 21.34 125.947 20.692C125.851 20.02 125.683 19.432 125.443 18.928C125.155 18.112 124.675 17.464 124.003 16.984C123.355 16.48 122.575 16.228 121.663 16.228C120.703 16.228 119.875 16.468 119.179 16.948C118.483 17.428 117.979 18.064 117.667 18.856C117.379 19.384 117.163 19.984 117.019 20.656C116.899 21.304 116.839 22.216 116.839 23.392C116.839 24.52 116.887 25.408 116.983 26.056C117.079 26.68 117.247 27.244 117.487 27.748C117.775 28.612 118.279 29.296 118.999 29.8C119.743 30.304 120.619 30.556 121.627 30.556C122.587 30.556 123.391 30.304 124.039 29.8C124.687 29.296 125.167 28.624 125.479 27.784Z" fill="white"/>
<path d="M154.246 18.928C154.534 20.008 154.678 21.496 154.678 23.392C154.678 25.36 154.51 26.884 154.174 27.964C153.718 29.452 152.926 30.628 151.798 31.492C150.67 32.356 149.266 32.788 147.586 32.788C146.626 32.788 145.75 32.596 144.958 32.212C144.166 31.828 143.506 31.276 142.978 30.556C142.954 30.508 142.918 30.496 142.87 30.52C142.822 30.52 142.798 30.544 142.798 30.592V32.14C142.798 32.38 142.678 32.5 142.438 32.5H140.602C140.362 32.5 140.242 32.38 140.242 32.14V7.66C140.242 7.42 140.362 7.3 140.602 7.3H142.438C142.678 7.3 142.798 7.42 142.798 7.66V16.156C142.798 16.204 142.81 16.24 142.834 16.264C142.882 16.264 142.93 16.24 142.978 16.192C143.506 15.496 144.166 14.956 144.958 14.572C145.75 14.188 146.626 13.996 147.586 13.996C149.29 13.996 150.718 14.44 151.87 15.328C153.022 16.192 153.814 17.392 154.246 18.928ZM151.474 27.748C151.714 27.244 151.882 26.68 151.978 26.056C152.074 25.408 152.122 24.52 152.122 23.392C152.122 22.216 152.05 21.304 151.906 20.656C151.786 19.984 151.582 19.384 151.294 18.856C150.982 18.064 150.478 17.428 149.782 16.948C149.086 16.468 148.258 16.228 147.298 16.228C146.386 16.228 145.594 16.48 144.922 16.984C144.274 17.464 143.806 18.112 143.518 18.928C143.278 19.432 143.098 20.008 142.978 20.656C142.882 21.304 142.834 22.216 142.834 23.392C142.834 24.544 142.882 25.444 142.978 26.092C143.098 26.716 143.266 27.28 143.482 27.784C143.794 28.624 144.274 29.296 144.922 29.8C145.57 30.304 146.374 30.556 147.334 30.556C148.342 30.556 149.206 30.304 149.926 29.8C150.67 29.296 151.186 28.612 151.474 27.748Z" fill="white"/>
<path d="M158.03 39.7C157.862 39.7 157.778 39.58 157.778 39.34V37.9C157.778 37.66 157.898 37.54 158.138 37.54H158.282C159.218 37.516 159.938 37.372 160.442 37.108C160.97 36.868 161.414 36.4 161.774 35.704C162.158 35.032 162.566 34 162.998 32.608C163.046 32.512 163.046 32.44 162.998 32.392L156.914 14.68L156.878 14.536C156.878 14.368 156.986 14.284 157.202 14.284H159.11C159.326 14.284 159.47 14.38 159.542 14.572L164.222 29.116C164.246 29.164 164.282 29.188 164.33 29.188C164.378 29.188 164.414 29.164 164.438 29.116L169.046 14.572C169.118 14.38 169.262 14.284 169.478 14.284H171.35C171.614 14.284 171.71 14.416 171.638 14.68L164.978 34.084C164.402 35.692 163.862 36.88 163.358 37.648C162.854 38.416 162.218 38.944 161.45 39.232C160.706 39.544 159.65 39.7 158.282 39.7H158.03Z" fill="white"/>
<rect x="185" width="40" height="40" rx="20" fill="#6CF9D8"/>
<path fill-rule="evenodd" clip-rule="evenodd" d="M214.127 8.57188L216.429 10.8739L208.736 18.567C208.331 17.5109 207.49 16.6705 206.434 16.265L214.127 8.57188ZM203.567 16.265L195.874 8.57188L193.572 10.8739L201.265 18.567C201.671 17.5109 202.511 16.6705 203.567 16.265ZM201.265 21.4339L193.572 29.127L195.874 31.429L203.567 23.7359C202.511 23.3304 201.671 22.49 201.265 21.4339ZM206.434 23.7359L214.127 31.429L216.429 29.127L208.736 21.4339C208.331 22.49 207.49 23.3304 206.434 23.7359Z" fill="#2D2E33"/>
<path d="M255.325 32.5C255.109 32.5 254.965 32.404 254.893 32.212L253.453 27.676C253.429 27.604 253.381 27.568 253.309 27.568H242.545C242.473 27.568 242.425 27.604 242.401 27.676L240.961 32.212C240.889 32.404 240.745 32.5 240.529 32.5H238.585C238.321 32.5 238.225 32.368 238.297 32.104L246.253 7.588C246.325 7.396 246.469 7.3 246.685 7.3H249.133C249.349 7.3 249.493 7.396 249.565 7.588L257.557 32.104L257.593 32.248C257.593 32.416 257.485 32.5 257.269 32.5H255.325ZM243.121 25.3C243.097 25.348 243.097 25.396 243.121 25.444C243.169 25.468 243.217 25.48 243.265 25.48H252.553C252.601 25.48 252.637 25.468 252.661 25.444C252.709 25.396 252.721 25.348 252.697 25.3L248.017 10.612C247.993 10.564 247.957 10.54 247.909 10.54C247.861 10.54 247.825 10.564 247.801 10.612L243.121 25.3Z" fill="white"/>
<path d="M267.447 32.788C265.719 32.788 264.231 32.344 262.983 31.456C261.759 30.544 260.919 29.32 260.463 27.784C260.151 26.728 259.995 25.24 259.995 23.32C259.995 21.592 260.151 20.128 260.463 18.928C260.895 17.44 261.735 16.252 262.983 15.364C264.231 14.452 265.719 13.996 267.447 13.996C269.199 13.996 270.711 14.44 271.983 15.328C273.279 16.216 274.119 17.32 274.503 18.64C274.623 19.072 274.695 19.432 274.719 19.72V19.792C274.719 19.96 274.611 20.068 274.395 20.116L272.595 20.368H272.523C272.355 20.368 272.247 20.26 272.199 20.044L272.091 19.504C271.875 18.592 271.347 17.824 270.507 17.2C269.667 16.552 268.647 16.228 267.447 16.228C266.247 16.228 265.239 16.552 264.423 17.2C263.631 17.824 263.115 18.664 262.875 19.72C262.659 20.632 262.551 21.844 262.551 23.356C262.551 24.94 262.659 26.164 262.875 27.028C263.115 28.108 263.631 28.972 264.423 29.62C265.239 30.244 266.247 30.556 267.447 30.556C268.623 30.556 269.631 30.256 270.471 29.656C271.335 29.032 271.875 28.24 272.091 27.28V27.136L272.127 26.992C272.151 26.752 272.295 26.656 272.559 26.704L274.323 26.992C274.563 27.04 274.671 27.172 274.647 27.388L274.503 28.108C274.143 29.5 273.315 30.628 272.019 31.492C270.723 32.356 269.199 32.788 267.447 32.788Z" fill="white"/>
<path d="M285.898 14.104C286.69 14.104 287.374 14.26 287.95 14.572C288.142 14.668 288.214 14.824 288.166 15.04L287.77 16.804C287.698 17.044 287.542 17.116 287.302 17.02C286.894 16.852 286.426 16.768 285.898 16.768L285.43 16.804C284.182 16.852 283.15 17.32 282.334 18.208C281.518 19.072 281.11 20.176 281.11 21.52V32.14C281.11 32.38 280.99 32.5 280.75 32.5H278.914C278.674 32.5 278.554 32.38 278.554 32.14V14.644C278.554 14.404 278.674 14.284 278.914 14.284H280.75C280.99 14.284 281.11 14.404 281.11 14.644V16.84C281.11 16.912 281.122 16.96 281.146 16.984C281.194 16.984 281.23 16.96 281.254 16.912C281.758 16.024 282.394 15.34 283.162 14.86C283.954 14.356 284.866 14.104 285.898 14.104Z" fill="white"/>
<path d="M297.719 32.788C295.991 32.788 294.503 32.344 293.255 31.456C292.007 30.568 291.143 29.344 290.663 27.784C290.327 26.68 290.159 25.204 290.159 23.356C290.159 21.508 290.327 20.044 290.663 18.964C291.119 17.428 291.971 16.216 293.219 15.328C294.467 14.44 295.979 13.996 297.755 13.996C299.459 13.996 300.923 14.44 302.147 15.328C303.395 16.216 304.247 17.416 304.703 18.928C305.039 19.96 305.207 21.436 305.207 23.356C305.207 25.3 305.039 26.776 304.703 27.784C304.247 29.344 303.395 30.568 302.147 31.456C300.923 32.344 299.447 32.788 297.719 32.788ZM297.719 30.556C298.871 30.556 299.855 30.244 300.671 29.62C301.487 28.972 302.039 28.108 302.327 27.028C302.543 26.164 302.651 24.952 302.651 23.392C302.651 21.808 302.555 20.596 302.363 19.756C302.075 18.676 301.511 17.824 300.671 17.2C299.855 16.552 298.859 16.228 297.683 16.228C296.507 16.228 295.511 16.552 294.695 17.2C293.879 17.824 293.327 18.676 293.039 19.756C292.847 20.596 292.751 21.808 292.751 23.392C292.751 24.976 292.847 26.188 293.039 27.028C293.303 28.108 293.843 28.972 294.659 29.62C295.499 30.244 296.519 30.556 297.719 30.556Z" fill="white"/>
<path d="M315.645 32.68C314.301 32.68 313.101 32.464 312.045 32.032C311.013 31.6 310.209 31.024 309.633 30.304C309.081 29.584 308.805 28.78 308.805 27.892V27.46C308.805 27.22 308.925 27.1 309.165 27.1H310.893C311.133 27.1 311.253 27.22 311.253 27.46V27.748C311.253 28.54 311.661 29.236 312.477 29.836C313.317 30.412 314.361 30.7 315.609 30.7C316.857 30.7 317.865 30.424 318.633 29.872C319.401 29.296 319.785 28.576 319.785 27.712C319.785 27.112 319.581 26.62 319.173 26.236C318.789 25.852 318.321 25.552 317.769 25.336C317.241 25.12 316.413 24.844 315.285 24.508C313.941 24.124 312.837 23.74 311.973 23.356C311.109 22.972 310.377 22.444 309.777 21.772C309.201 21.076 308.913 20.2 308.913 19.144C308.913 17.608 309.513 16.384 310.713 15.472C311.913 14.56 313.497 14.104 315.465 14.104C316.785 14.104 317.949 14.32 318.957 14.752C319.989 15.184 320.781 15.784 321.333 16.552C321.885 17.296 322.161 18.136 322.161 19.072V19.18C322.161 19.42 322.041 19.54 321.801 19.54H320.109C319.869 19.54 319.749 19.42 319.749 19.18V19.072C319.749 18.256 319.353 17.572 318.561 17.02C317.793 16.468 316.749 16.192 315.429 16.192C314.205 16.192 313.221 16.444 312.477 16.948C311.733 17.428 311.361 18.1 311.361 18.964C311.361 19.78 311.721 20.404 312.441 20.836C313.161 21.268 314.277 21.7 315.789 22.132C317.181 22.54 318.309 22.924 319.173 23.284C320.037 23.644 320.781 24.172 321.405 24.868C322.029 25.54 322.341 26.428 322.341 27.532C322.341 29.092 321.729 30.34 320.505 31.276C319.281 32.212 317.661 32.68 315.645 32.68Z" fill="white"/>
<path d="M331.729 32.68C330.385 32.68 329.185 32.464 328.129 32.032C327.097 31.6 326.293 31.024 325.717 30.304C325.165 29.584 324.889 28.78 324.889 27.892V27.46C324.889 27.22 325.009 27.1 325.249 27.1H326.977C327.217 27.1 327.337 27.22 327.337 27.46V27.748C327.337 28.54 327.745 29.236 328.561 29.836C329.401 30.412 330.445 30.7 331.693 30.7C332.941 30.7 333.949 30.424 334.717 29.872C335.485 29.296 335.869 28.576 335.869 27.712C335.869 27.112 335.665 26.62 335.257 26.236C334.873 25.852 334.405 25.552 333.853 25.336C333.325 25.12 332.497 24.844 331.369 24.508C330.025 24.124 328.921 23.74 328.057 23.356C327.193 22.972 326.461 22.444 325.861 21.772C325.285 21.076 324.997 20.2 324.997 19.144C324.997 17.608 325.597 16.384 326.797 15.472C327.997 14.56 329.581 14.104 331.549 14.104C332.869 14.104 334.033 14.32 335.041 14.752C336.073 15.184 336.865 15.784 337.417 16.552C337.969 17.296 338.245 18.136 338.245 19.072V19.18C338.245 19.42 338.125 19.54 337.885 19.54H336.193C335.953 19.54 335.833 19.42 335.833 19.18V19.072C335.833 18.256 335.437 17.572 334.645 17.02C333.877 16.468 332.833 16.192 331.513 16.192C330.289 16.192 329.305 16.444 328.561 16.948C327.817 17.428 327.445 18.1 327.445 18.964C327.445 19.78 327.805 20.404 328.525 20.836C329.245 21.268 330.361 21.7 331.873 22.132C333.265 22.54 334.393 22.924 335.257 23.284C336.121 23.644 336.865 24.172 337.489 24.868C338.113 25.54 338.425 26.428 338.425 27.532C338.425 29.092 337.813 30.34 336.589 31.276C335.365 32.212 333.745 32.68 331.729 32.68Z" fill="white"/>
</svg>
